<svg xmlns="http://www.w3.org/2000/svg" xmlns:svg="http://www.w3.org/2000/svg" id="svg2" width="135" height="135" version="1.0"><defs id="defs4"><clipPath id="clipPath2474" clipPathUnits="userSpaceOnUse"><path id="path2476" d="m 0,450.7086 121.89,0 0,153.071 -121.89,0 0,-153.071 z"/></clipPath><clipPath id="clipPath2484" clipPathUnits="userSpaceOnUse"><path id="path2486" d="m 1701.323,36.99957 283.465,0 0,595.276 -283.465,0 0,-595.276 z"/></clipPath><clipPath id="clipPath2494" clipPathUnits="userSpaceOnUse"><path id="path2496" d="m 0,1802.8342 487.5601,0 0,578.1658 L 0,2381 0,1802.8342 z"/></clipPath><clipPath id="clipPath2504" clipPathUnits="userSpaceOnUse"><path id="path2506" d="m -1.5e-6,-2.94433 2.3255315,0 0,3.88873 -2.3255315,0 0,-3.88873 z"/></clipPath><clipPath id="clipPath2514" clipPathUnits="userSpaceOnUse"><path id="path2516" d="m 0,1802.8342 487.5601,0 0,578.1658 L 0,2381 0,1802.8342 z"/></clipPath><clipPath id="clipPath2532" clipPathUnits="userSpaceOnUse"><path id="path2534" d="m 9.806,537.3086 104.874,0 0,28.203 -104.874,0 0,-28.203 z"/></clipPath><clipPath id="clipPath2542" clipPathUnits="userSpaceOnUse"><path id="path2544" d="m 1701.323,36.99957 283.465,0 0,595.276 -283.465,0 0,-595.276 z"/></clipPath><clipPath id="clipPath2552" clipPathUnits="userSpaceOnUse"><path id="path2554" d="m 39.2241,2149.2344 419.4961,0 0,112.812 -419.4961,0 0,-112.812 z"/></clipPath><clipPath id="clipPath2562" clipPathUnits="userSpaceOnUse"><path id="path2564" d="m -0.0935124,-19.05134 2.7028824,0 0,21.10663 -2.7028824,0 0,-21.10663 z"/></clipPath><clipPath id="clipPath2572" clipPathUnits="userSpaceOnUse"><path id="path2574" d="m 39.2241,2149.2344 419.4961,0 0,112.812 -419.4961,0 0,-112.812 z"/></clipPath><clipPath id="clipPath2612" clipPathUnits="userSpaceOnUse"><path id="path2614" d="m 0,-9.1245 291.968,0 0,462.668 -291.968,0 0,-462.668 z"/></clipPath><clipPath id="clipPath2618" clipPathUnits="userSpaceOnUse"><path id="path2620" d="m 0,0 283.5,0 0,453.5436 -283.5,0 L 0,0 z"/></clipPath><clipPath id="clipPath2628" clipPathUnits="userSpaceOnUse"><path id="path2630" d="m 1701.323,36.99957 283.465,0 0,595.276 -283.465,0 0,-595.276 z"/></clipPath><clipPath id="clipPath2638" clipPathUnits="userSpaceOnUse"><path id="path2640" d="m 0,0 1134,0 0,1814.1743 -1134,0 L 0,0 z"/></clipPath><clipPath id="clipPath2644" clipPathUnits="userSpaceOnUse"><path id="path2646" d="m 0,0 1134,0 0,1814.1743 -1134,0 L 0,0 z"/></clipPath><clipPath id="clipPath2654" clipPathUnits="userSpaceOnUse"><path id="path2656" d="m 8.716e-4,0.0203769 0.9688584,0 0,1.2848631 -0.9688584,0 0,-1.2848631 z"/></clipPath><clipPath id="clipPath2664" clipPathUnits="userSpaceOnUse"><path id="path2666" d="m 0,0 1134,0 0,1814.1743 -1134,0 L 0,0 z"/></clipPath><filter style="color-interpolation-filters:sRGB" id="filter4210" width="1.027" height="1.021" x="-.014" y="-.011"><feGaussianBlur id="feGaussianBlur4212" stdDeviation=".173"/></filter></defs><metadata id="metadata7"/><g id="layer1" transform="translate(-74.24472,-374.35257)"><rect style="fill:#000;fill-opacity:1" id="rect3079" width="117" height="117" x="83.245" y="383.353" ry="10.174"/><rect style="fill:#3465a4;fill-opacity:1" id="rect3849" width="108" height="108" x="87.745" y="387.853" ry="8.951"/><text style="font-style:normal;font-weight:400;font-size:40px;line-height:125%;font-family:Sans;letter-spacing:0;word-spacing:0;fill:#000;fill-opacity:1;stroke:none;stroke-width:1px;stroke-linecap:butt;stroke-linejoin:miter;stroke-opacity:1;filter:url(#filter4210)" id="text4178" x="106.419" y="461.19" xml:space="preserve"><tspan id="tspan4180" x="106.419" y="461.19" style="font-style:normal;font-variant:normal;font-weight:700;font-stretch:normal;font-size:87.5px;font-family:Cantarell;-inkscape-font-specification:'Cantarell Bold';text-align:start;text-anchor:start;opacity:1;fill:#fff;fill-opacity:1">gi</tspan></text></g></svg>